<svg xmlns="http://www.w3.org/2000/svg" width="16" height="18" viewBox="0 0 16 18">
  <g id="다각형_7" data-name="다각형 7" transform="translate(0 18) rotate(-90)" fill="none">
    <path d="M8.128,1.549a1,1,0,0,1,1.743,0l7.29,12.96A1,1,0,0,1,16.29,16H1.71a1,1,0,0,1-.872-1.49Z" stroke="none"/>
    <path d="M 9.000002861022949 6.119190216064453 L 5.129544258117676 12.99999809265137 L 12.87045669555664 12.99999809265137 L 9.000002861022949 6.119190216064453 M 9.000000953674316 1.039730072021484 C 9.340212821960449 1.039730072021484 9.680424690246582 1.209643363952637 9.871580123901367 1.549468040466309 L 17.16172981262207 14.50973796844482 C 17.53668975830078 15.17633819580078 17.05497932434082 15.99999809265137 16.2901496887207 15.99999809265137 L 1.709850311279297 15.99999809265137 C 0.9450206756591797 15.99999809265137 0.4633102416992188 15.17633819580078 0.8382701873779297 14.50973796844482 L 8.128430366516113 1.549468040466309 C 8.319580078125 1.209643363952637 8.6597900390625 1.039730072021484 9.000000953674316 1.039730072021484 Z" stroke="none" fill="#707070"/>
  </g>
</svg>
