<?xml version="1.0" standalone="no"?>
<!DOCTYPE svg PUBLIC "-//W3C//DTD SVG 20010904//EN"
 "http://www.w3.org/TR/2001/REC-SVG-20010904/DTD/svg10.dtd">
<svg version="1.0" xmlns="http://www.w3.org/2000/svg"
 width="25pt" height="25pt" viewBox="0 0 512.000000 512.000000"
 preserveAspectRatio="xMidYMid meet">

<g transform="translate(0.000000,512.000000) scale(0.100000,-0.100000)"
fill="#000000" stroke="none">
<path d="M1380 3928 c-646 -528 -1221 -998 -1277 -1044 l-103 -84 162 -198
c88 -108 162 -198 164 -200 2 -3 2130 1731 2214 1804 13 11 173 -116 1128
-897 611 -500 1116 -909 1122 -909 9 0 334 390 328 395 -2 1 -561 458 -1243
1015 -682 558 -1258 1028 -1280 1046 l-40 32 -1175 -960z"/>
<path d="M927 4743 c-11 -10 -8 -795 2 -791 6 2 111 86 235 187 l226 185 0
213 0 213 -228 0 c-126 0 -232 -3 -235 -7z"/>
<path d="M1677 3113 l-877 -716 0 -1084 0 -1083 498 2 497 3 3 863 2 862 760
0 760 0 2 -862 3 -863 498 -3 497 -2 0 1079 0 1079 -872 714 c-479 392 -877
716 -883 720 -7 4 -364 -281 -888 -709z"/>
<path d="M2100 945 l0 -715 460 0 460 0 0 715 0 715 -460 0 -460 0 0 -715z"/>
</g>
</svg>
