<svg xmlns="http://www.w3.org/2000/svg" width="1" height="1" viewBox="0 -9 25 30">
  <g id="합치기_9" data-name="합치기 9" transform="translate(7294.964 4245.965)" fill="none">
    <path d="M-7287.869-4231.8l-6.364-6.364a2.5,2.5,0,0,1,0-3.535,2.5,2.5,0,0,1,3.535,0l4.646,4.646,8.183-8.184a2.5,2.5,0,0,1,3.535,0,2.5,2.5,0,0,1,0,3.535l-9.9,9.9a2.49,2.49,0,0,1-1.8.733h-.064A2.494,2.494,0,0,1-7287.869-4231.8Z" stroke="none"/>
    <path d="M -7286.1005859375 -4232.064453125 C -7286.0869140625 -4232.064453125 -7286.07275390625 -4232.06494140625 -7286.05908203125 -4232.06494140625 L -7286.02197265625 -4232.0654296875 L -7286.00048828125 -4232.06494140625 C -7285.599609375 -4232.06494140625 -7285.22314453125 -4232.22119140625 -7284.939453125 -4232.50537109375 L -7275.03955078125 -4242.40576171875 C -7274.755859375 -4242.6884765625 -7274.599609375 -4243.064453125 -7274.599609375 -4243.46484375 C -7274.599609375 -4243.865234375 -7274.75634765625 -4244.24169921875 -7275.04052734375 -4244.52587890625 C -7275.3232421875 -4244.80908203125 -7275.69970703125 -4244.96484375 -7276.1005859375 -4244.96484375 C -7276.50146484375 -4244.96484375 -7276.8779296875 -4244.80908203125 -7277.1611328125 -4244.52587890625 L -7286.05078125 -4235.63525390625 L -7291.4052734375 -4240.9892578125 C -7291.68798828125 -4241.27294921875 -7292.064453125 -4241.4287109375 -7292.46484375 -4241.4287109375 C -7292.865234375 -4241.4287109375 -7293.24169921875 -4241.27294921875 -7293.525390625 -4240.98828125 C -7293.80859375 -4240.70556640625 -7293.96435546875 -4240.3291015625 -7293.96435546875 -4239.92822265625 C -7293.96435546875 -4239.52734375 -7293.80859375 -4239.15087890625 -7293.525390625 -4238.86767578125 L -7287.162109375 -4232.50390625 C -7286.87841796875 -4232.220703125 -7286.50146484375 -4232.064453125 -7286.1005859375 -4232.064453125 M -7286.1005859375 -4231.064453125 C -7286.74072265625 -4231.064453125 -7287.38037109375 -4231.30859375 -7287.86865234375 -4231.79638671875 L -7294.232421875 -4238.16064453125 C -7295.20849609375 -4239.13623046875 -7295.20849609375 -4240.72021484375 -7294.232421875 -4241.69580078125 C -7293.25634765625 -4242.67333984375 -7291.67236328125 -4242.67236328125 -7290.697265625 -4241.69580078125 L -7286.05078125 -4237.04931640625 L -7277.8681640625 -4245.23291015625 C -7276.8935546875 -4246.20947265625 -7275.3095703125 -4246.2099609375 -7274.3330078125 -4245.23291015625 C -7273.35546875 -4244.25537109375 -7273.35546875 -4242.67333984375 -7274.3330078125 -4241.69775390625 L -7284.232421875 -4231.79833984375 C -7284.72021484375 -4231.3095703125 -7285.3603515625 -4231.06494140625 -7286.00048828125 -4231.06494140625 C -7286.03369140625 -4231.06494140625 -7286.06689453125 -4231.064453125 -7286.1005859375 -4231.064453125 Z" stroke="none" fill="#707070"/>
  </g>
</svg>
