<svg xmlns="http://www.w3.org/2000/svg" width="12.682" height="9.247" viewBox="0 0 9.247 9.247">
  <path id="합치기_16" data-name="합치기 16" d="M-9922.789-2921.576l-1.967-1.987-1.963,1.943a1.563,1.563,0,0,1-2.2,0,1.522,1.522,0,0,1,0-2.171l1.987-1.967-1.943-1.963a1.565,1.565,0,0,1,0-2.193,1.524,1.524,0,0,1,2.171,0l1.966,1.986,1.964-1.943a1.565,1.565,0,0,1,2.193,0,1.527,1.527,0,0,1,0,2.173l-1.985,1.965,1.942,1.963a1.563,1.563,0,0,1,0,2.2,1.518,1.518,0,0,1-1.085.454A1.52,1.52,0,0,1-9922.789-2921.576Z" transform="translate(9929.369 2930.368)" fill="#393939"/>
</svg>
