<svg xmlns="http://www.w3.org/2000/svg" width="12.682" height="8.752" viewBox="0 0 12.682 8.752">
  <g id="합치기_15" data-name="합치기 15" transform="translate(9929.396 2930.35)" fill="none">
    <path d="M-9924.1-2921.6a1.485,1.485,0,0,1-1.078-.429l-3.778-3.738a1.456,1.456,0,0,1,0-2.076,1.491,1.491,0,0,1,2.1,0l2.758,2.729,4.855-4.807a1.5,1.5,0,0,1,2.1,0,1.462,1.462,0,0,1,0,2.078l-5.876,5.814a1.492,1.492,0,0,1-1.05.43Z" stroke="none"/>
    <path d="M -9924.072265625 -2922.598388671875 C -9923.99609375 -2922.5986328125 -9923.8505859375 -2922.617919921875 -9923.7275390625 -2922.7392578125 L -9917.853515625 -2928.551025390625 C -9917.732421875 -2928.671630859375 -9917.71484375 -2928.810546875 -9917.71484375 -2928.8828125 C -9917.71484375 -2928.9541015625 -9917.732421875 -2929.091796875 -9917.8505859375 -2929.20849609375 C -9917.9755859375 -2929.33203125 -9918.123046875 -2929.350341796875 -9918.19921875 -2929.350341796875 C -9918.275390625 -2929.350341796875 -9918.421875 -2929.33203125 -9918.5458984375 -2929.209716796875 L -9924.1044921875 -2923.7060546875 L -9927.56640625 -2927.1318359375 C -9927.6904296875 -2927.25537109375 -9927.8369140625 -2927.27392578125 -9927.9130859375 -2927.27392578125 C -9927.98828125 -2927.27392578125 -9928.1328125 -2927.255615234375 -9928.2578125 -2927.131103515625 C -9928.3779296875 -2927.012451171875 -9928.3955078125 -2926.87548828125 -9928.3955078125 -2926.80419921875 C -9928.3955078125 -2926.733154296875 -9928.3779296875 -2926.59619140625 -9928.2578125 -2926.477294921875 L -9924.4794921875 -2922.739013671875 C -9924.35546875 -2922.61669921875 -9924.2099609375 -2922.5986328125 -9924.134765625 -2922.5986328125 L -9924.072265625 -2922.598388671875 M -9924.07421875 -2921.598388671875 C -9924.095703125 -2921.598388671875 -9924.115234375 -2921.5986328125 -9924.134765625 -2921.5986328125 C -9924.5146484375 -2921.5986328125 -9924.8935546875 -2921.741943359375 -9925.1826171875 -2922.0283203125 L -9928.9609375 -2925.766357421875 C -9929.541015625 -2926.339599609375 -9929.541015625 -2927.26904296875 -9928.9609375 -2927.84228515625 C -9928.3828125 -2928.41748046875 -9927.4443359375 -2928.41748046875 -9926.8623046875 -2927.84228515625 L -9924.1044921875 -2925.113037109375 L -9919.2490234375 -2929.92041015625 C -9918.6689453125 -2930.49365234375 -9917.728515625 -2930.49365234375 -9917.1484375 -2929.92041015625 C -9916.5703125 -2929.347412109375 -9916.5703125 -2928.417724609375 -9917.1484375 -2927.84228515625 L -9923.0244140625 -2922.0283203125 C -9923.3154296875 -2921.74169921875 -9923.6953125 -2921.598388671875 -9924.07421875 -2921.598388671875 Z" stroke="none" fill="#393939"/>
  </g>
</svg>
